<svg
  version="1.1"
  baseProfile="full"
  xmlns="http://www.w3.org/2000/svg"
  xmlns:xlink="http://www.w3.org/1999/xlink"
  xmlns:ev="http://www.w3.org/2001/xml-events"
  viewBox="0 0 512 512"
>
  <g
    fill="#71797E"
    transform-origin="center"
    transform="scale(.75)"
  >
    <circle cx="256" cy="0" r="16" />
    <circle cx="256" cy="128" r="16" />
    <circle cx="256" cy="256" r="16" />
    <circle cx="256" cy="384" r="16" />
    <circle cx="256" cy="512" r="16" />
    <circle cx="145.14874831559186" cy="64" r="16" />
    <circle cx="145.14874831559186" cy="192" r="16" />
    <circle cx="145.14874831559186" cy="320" r="16" />
    <circle cx="145.14874831559186" cy="448" r="16" />
    <circle cx="366.8512516844081" cy="64" r="16" />
    <circle cx="366.8512516844081" cy="192" r="16" />
    <circle cx="366.8512516844081" cy="320" r="16" />
    <circle cx="366.8512516844081" cy="448" r="16" />
    <circle cx="34.29749663118372" cy="128" r="16" />
    <circle cx="34.29749663118372" cy="256" r="16" />
    <circle cx="34.29749663118372" cy="384" r="16" />
    <circle cx="477.7025033688163" cy="128" r="16" />
    <circle cx="477.7025033688163" cy="256" r="16" />
    <circle cx="477.7025033688163" cy="384" r="16" />
    <g stroke="#71797E" stroke-width="8">
      <line x1="256" y1="0" x2="256" y2="512" />
      <line x1="145.14874831559186" y1="64" x2="145.14874831559186" y2="448" />
      <line x1="366.8512516844081" y1="64" x2="366.8512516844081" y2="448" />
      <line x1="34.29749663118372" y1="128" x2="34.29749663118372" y2="384" />
      <line x1="477.7025033688163" y1="128" x2="477.7025033688163" y2="384" />

      <line x1="256" y1="0" x2="34.29749663118372" y2="128" />
      <line x1="366.8512516844081" y1="64" x2="34.29749663118372" y2="256" />
      <line x1="477.7025033688163" y1="128" x2="34.29749663118372" y2="384" />
      <line x1="477.7025033688163" y1="256" x2="145.14874831559186" y2="448" />
      <line x1="477.7025033688163" y1="384" x2="256" y2="512" />

      <line x1="256" y1="0" x2="477.7025033688163" y2="128" />
      <line x1="145.14874831559186" y1="64" x2="477.7025033688163" y2="256" />
      <line x1="34.29749663118372" y1="128" x2="477.7025033688163" y2="384" />
      <line x1="34.29749663118372" y1="256" x2="366.8512516844081" y2="448" />
      <line x1="34.29749663118372" y1="384" x2="256" y2="512" />
    </g>
  </g>
</svg>
